<svg width="92" height="28" viewBox="0 0 92 28" fill="none" xmlns="http://www.w3.org/2000/svg">
<path fill-rule="evenodd" clip-rule="evenodd" d="M88.5621 10.4477C89.3387 10.4477 90.0032 10.192 90.4755 9.69544C90.9739 9.1989 91.224 8.57544 91.224 7.8549C91.224 7.24637 91.0019 6.71997 90.5576 6.3037C90.1133 5.90424 89.5309 5.68024 88.7824 5.68024C88.0339 5.68024 87.3413 5.92104 86.8691 6.4157C86.3707 6.91224 86.1205 7.5525 86.1205 8.27117C86.1205 8.92637 86.3427 9.4229 86.7851 9.83917C87.2293 10.2554 87.8379 10.4477 88.5603 10.4477H88.5621ZM89.6709 14.6869L88.8132 18.1235L91.9987 18.2186L90.9739 22.2824H76.0013L77.0261 18.2186H83.6248L84.0971 16.3314L84.1096 16.26L84.1097 16.2599C84.1329 16.1289 84.1531 16.015 84.1531 15.9469C84.1531 15.5138 84.0411 15.2898 83.4045 15.2898H74.5864L72.8392 22.2824H41.9515C39.4296 22.2656 37.3483 21.8829 35.7411 21.1624C34.048 20.3933 33.1893 19.1781 33.1893 17.4981C33.1893 17.1136 33.2453 16.6338 33.3555 16.1224L33.4115 15.8349H39.2056L39.1496 16.0272C39.1363 16.1258 39.1229 16.1995 39.1126 16.2565C39.1013 16.3192 39.0936 16.3617 39.0936 16.3949C39.0936 17.5149 40.4245 18.0749 43.0304 18.0749C44.3613 18.0749 45.2779 17.9629 45.7763 17.7389C46.2747 17.5149 46.5248 17.2256 46.5248 16.8578C46.5248 16.4416 46.2205 16.1373 45.6101 16.0104C44.9997 15.833 44.0291 15.7378 42.6981 15.6258C41.1171 15.4821 39.7861 15.3216 38.7333 15.1293C37.6805 14.9389 36.7659 14.5226 35.9893 13.8824C35.2128 13.2421 34.8245 12.3461 34.8245 11.1309C34.8245 9.72157 35.4629 8.48957 36.7939 7.38637C38.1229 6.28317 40.6187 5.72317 44.3072 5.70637C45.9144 5.70637 47.4115 5.89864 48.7984 6.21784C50.2115 6.55384 51.3483 7.09704 52.2088 7.81757C53.0675 8.53811 53.5117 9.45091 53.5117 10.5541C53.5117 10.8584 53.4856 11.1626 53.4016 11.5472L53.3456 11.8514H47.5496L47.5776 11.676C47.6597 11.0506 47.3275 10.6045 46.5789 10.3637C45.8304 10.108 44.8616 9.97917 43.6408 9.97917C42.7261 9.97917 42.0056 10.0594 41.4512 10.2517C40.9248 10.444 40.6467 10.7482 40.6467 11.1328C40.6467 11.4837 40.9248 11.7394 41.5072 11.8682C42.0896 12.012 43.0323 12.124 44.3352 12.236C45.9723 12.3629 47.3312 12.5402 48.384 12.7474C49.4648 12.9714 50.2413 13.244 51.0459 13.8842C51.8504 14.5226 52.3768 15.596 52.3768 16.8112C52.3768 17.2741 52.2928 17.7706 52.1267 18.2186H57.5605L57.8648 16.7794C57.9189 16.5069 57.9469 16.1709 57.9469 16.0589C57.9469 15.5642 57.6427 15.3234 57.0043 15.3234C56.7261 15.3234 56.4219 15.372 55.9776 15.484L56.9483 11.4688C57.6408 11.213 58.5835 11.1645 59.7763 11.1645C60.8029 11.1645 62.0219 11.3232 62.6603 11.7562C63.2968 12.2042 63.6029 12.8594 63.6029 13.804C63.6029 14.14 63.5488 14.5394 63.4368 15.036L62.7163 18.157H68.8445L69.6491 15.26H66.7109L67.6256 11.1645L71.6464 11.1328L71.7565 10.765C70.98 10.765 70.3416 10.6064 69.8432 10.2536C69.3448 9.88584 69.0947 9.42104 69.0947 8.87784C69.0947 8.12557 69.5949 7.43864 70.5376 6.83011C71.4803 6.22157 73.3376 5.91731 76.0555 5.91731C77.4704 5.91731 78.7453 6.09464 79.8541 6.33357C80.9629 6.60424 81.8496 6.98877 82.516 7.51704C83.1544 8.04531 83.4867 8.68557 83.4867 9.38931C83.4867 9.64504 83.4587 9.86904 83.4027 10.0613L83.3467 10.2218H78.3011C78.3291 9.99784 78.1629 9.77384 77.7747 9.61331C77.3864 9.42104 76.7779 9.34077 75.9453 9.34077C75.0027 9.34077 74.3363 9.48451 74.004 9.69171C73.6437 9.91757 73.4776 10.1882 73.4776 10.4925C73.4776 10.765 73.5616 10.989 73.6997 11.1328H86.5107C87.5373 11.1328 88.368 11.325 88.9504 11.7096C89.5309 12.0941 89.8371 12.7026 89.8371 13.5501C89.8371 13.9197 89.7811 14.2706 89.6709 14.6869ZM64.4392 9.69544C63.9669 10.192 63.3024 10.4477 62.5259 10.4477C61.8035 10.4477 61.1949 10.2554 60.7507 9.83917C60.3083 9.4229 60.0581 8.92637 60.0861 8.27117C60.0861 7.5525 60.3363 6.91224 60.8347 6.4157C61.3069 5.92104 61.9715 5.68024 62.748 5.68024C63.4704 5.68024 64.0789 5.90424 64.5232 6.3037C64.9656 6.71997 65.1877 7.24637 65.1877 7.8549C65.1877 8.57544 64.9376 9.1989 64.4392 9.69544Z" fill="#231F20"/>
<path fill-rule="evenodd" clip-rule="evenodd" d="M14 28C21.7317 28 28 21.7317 28 14C28 6.26827 21.7317 0 14 0C6.26827 0 0 6.26827 0 14C0 21.7317 6.26827 28 14 28ZM10.1808 14.1717L19.5123 10.7445C19.5123 10.7445 19.516 10.7445 19.5179 10.7427C20.7909 10.276 21.4443 8.8648 20.9757 7.59173C20.5072 6.31867 19.0979 5.66533 17.8248 6.13387C17.8229 6.13387 17.8211 6.13387 17.8192 6.13573L8.48773 9.56107C8.48773 9.56107 8.484 9.56107 8.48213 9.56293C7.20907 10.0315 6.55573 11.4408 7.02427 12.7139C7.4928 13.9869 8.90213 14.6403 10.1752 14.1717C10.1752 14.1717 10.1789 14.1717 10.1808 14.1699V14.1717ZM20.9776 15.2843C20.5109 14.0112 19.0997 13.3579 17.8267 13.8264C17.8248 13.8264 17.8229 13.8264 17.8211 13.8283L8.4896 17.2555C8.4896 17.2555 8.48587 17.2555 8.484 17.2573C7.21094 17.724 6.5576 19.1352 7.02613 20.4083C7.4928 21.6813 8.904 22.3347 10.1771 21.8661C10.1784 21.8661 10.1797 21.8661 10.1809 21.8655C10.1815 21.8652 10.1821 21.8648 10.1827 21.8643L19.5141 18.4371C19.5141 18.4371 19.5179 18.4371 19.5197 18.4352C20.7928 17.9685 21.4461 16.5573 20.9776 15.2843Z" fill="#231F20"/>
</svg>
