<svg width="16" height="16" viewBox="0 0 16 16" fill="none" xmlns="http://www.w3.org/2000/svg">
<g clip-path="url(#clip0_10_2295)">
<path d="M1.7 2H14.3C14.4857 2 14.6637 2.07024 14.795 2.19526C14.9263 2.32029 15 2.48986 15 2.66667V13.3333C15 13.5101 14.9263 13.6797 14.795 13.8047C14.6637 13.9298 14.4857 14 14.3 14H1.7C1.51435 14 1.3363 13.9298 1.20503 13.8047C1.07375 13.6797 1 13.5101 1 13.3333V2.66667C1 2.48986 1.07375 2.32029 1.20503 2.19526C1.3363 2.07024 1.51435 2 1.7 2ZM13.6 7.33333H2.4V12.6667H13.6V7.33333ZM13.6 6V3.33333H2.4V6H13.6ZM9.4 10H12.2V11.3333H9.4V10Z" fill="#222222"/>
</g>
<defs>
<clipPath id="clip0_10_2295">
<rect width="16" height="16" fill="white"/>
</clipPath>
</defs>
</svg>
