<svg width="36" height="36" viewBox="0 0 36 36" fill="none" xmlns="http://www.w3.org/2000/svg">
<g clip-path="url(#clip0_10_539)">
<path d="M24 25.5002H12C11.8011 25.5002 11.6103 25.4212 11.4697 25.2805C11.329 25.1399 11.25 24.9491 11.25 24.7502V11.2502C11.25 11.0513 11.329 10.8605 11.4697 10.7199C11.6103 10.5792 11.8011 10.5002 12 10.5002H24C24.1989 10.5002 24.3897 10.5792 24.5303 10.7199C24.671 10.8605 24.75 11.0513 24.75 11.2502V24.7502C24.75 24.9491 24.671 25.1399 24.5303 25.2805C24.3897 25.4212 24.1989 25.5002 24 25.5002ZM23.25 24.0002V12.0002H12.75V24.0002H23.25ZM15 15.7502H21V17.2502H15V15.7502ZM15 18.7502H21V20.2502H15V18.7502Z" fill="#3FC493"/>
</g>
<defs>
<clipPath id="clip0_10_539">
<rect width="18" height="18" fill="white" transform="translate(9 9)"/>
</clipPath>
</defs>
</svg>
